<?xml version="1.0" encoding="iso-8859-1"?>
<!-- Uploaded to: SVG Repo, www.svgrepo.com, Generator: SVG Repo Mixer Tools -->
<svg height="800px" width="800px" version="1.1" id="Layer_1" xmlns="http://www.w3.org/2000/svg" xmlns:xlink="http://www.w3.org/1999/xlink" 
	 viewBox="0 0 512.001 512.001" xml:space="preserve">
<path style="fill:#663310;" d="M255.996,256.026L38.199,373.119c-64.66-120.297-19.573-270.244,100.715-334.915
	c120.288-64.67,270.218-19.575,334.885,100.727c64.668,120.3,19.57,270.243-100.715,334.915
	c-57.311,30.81-124.455,37.792-186.875,19.426L255.996,256.026L255.996,256.026z"/>
<path style="fill:#391B10;" d="M387.98,262.505c-13.815,7.429-31.036,2.247-38.455-11.568c-7.425-13.815-2.25-31.033,11.565-38.459
	c13.815-7.429,31.026-2.249,38.451,11.564C406.97,237.86,401.796,255.079,387.98,262.505z M104.858,182.476
	c-13.815,7.429-18.993,24.649-11.575,38.462c7.428,13.817,24.653,18.993,38.465,11.566c13.815-7.426,18.99-24.645,11.562-38.46
	C135.884,180.229,118.666,175.05,104.858,182.476z"/>
<path d="M481.377,134.858C436.687,51.72,350.244,0.073,255.782,0.073c-41.942,0-83.762,10.565-120.942,30.553
	c-60.2,32.366-104.193,86.24-123.877,151.698C-8.721,247.781-1.739,316.986,30.621,377.191c1.081,2.01,2.915,3.508,5.1,4.166
	c2.184,0.656,4.542,0.419,6.551-0.661l199.66-107.342l-63.975,217.489c-1.341,4.557,1.267,9.339,5.825,10.68
	c23.461,6.904,47.756,10.404,72.207,10.404c42.147,0,84.046-10.549,121.17-30.506c60.199-32.366,104.194-86.24,123.878-151.696
	C520.722,264.267,513.74,195.062,481.377,134.858z M369.011,466.268c-34.626,18.615-73.709,28.454-113.022,28.454
	c-19.938,0-39.762-2.495-59.056-7.424l67.316-228.845c0.979-3.329-0.138-6.921-2.832-9.107c-2.694-2.188-6.44-2.541-9.494-0.898
	L41.838,361.395C-14.6,246.808,29.606,106.739,142.988,45.781C177.67,27.135,216.673,17.28,255.782,17.28
	c88.117,0,168.755,48.174,210.44,125.724C528.536,258.928,484.929,403.944,369.011,466.268z M118.275,170.483
	c-6.071,0-12.118,1.527-17.492,4.416c-17.965,9.662-24.729,32.14-15.077,50.112c6.463,12.019,18.961,19.486,32.618,19.487
	c0.001,0,0.002,0,0.003,0c6.071,0,12.12-1.527,17.494-4.416c8.706-4.68,15.067-12.469,17.913-21.936
	c2.845-9.464,1.833-19.471-2.846-28.176C144.426,177.95,131.929,170.483,118.275,170.483z M137.257,213.194
	c-1.522,5.063-4.925,9.229-9.583,11.734c-2.919,1.57-6.064,2.366-9.346,2.366c0,0-0.001,0-0.002,0
	c-7.314,0-14.006-3.997-17.463-10.426c-5.165-9.614-1.545-21.644,8.07-26.814c2.917-1.569,6.062-2.365,9.342-2.365
	c7.311,0,14.001,3.996,17.458,10.43C138.238,202.776,138.778,208.13,137.257,213.194z M409.966,248.147
	c2.845-9.464,1.833-19.471-2.846-28.177c-6.461-12.02-18.955-19.486-32.607-19.486c-6.071,0-12.12,1.527-17.493,4.417
	c-17.97,9.659-24.729,32.137-15.072,50.107c6.457,12.023,18.953,19.491,32.611,19.491c6.072,0,12.121-1.528,17.496-4.417
	C400.758,265.403,407.12,257.612,409.966,248.147z M393.489,243.194c-1.522,5.063-4.925,9.23-9.583,11.734
	c-2.919,1.57-6.064,2.366-9.347,2.366c-7.312,0-14.001-3.995-17.455-10.43c-5.169-9.616-1.553-21.642,8.062-26.81
	c2.919-1.57,6.065-2.366,9.347-2.366c7.308,0,13.995,3.995,17.453,10.427C394.47,232.776,395.011,238.131,393.489,243.194z
	 M311.827,377.636c2.254,4.183,0.69,9.4-3.493,11.654l-2.073,1.117c-1.298,0.699-2.696,1.031-4.073,1.031
	c-3.063,0-6.026-1.639-7.58-4.523c-2.254-4.183-0.69-9.4,3.492-11.654l2.073-1.117C304.354,371.89,309.574,373.454,311.827,377.636z
	 M165.654,100.718c2.247,4.186,0.676,9.4-3.51,11.649l-2.08,1.117c-1.295,0.695-2.689,1.025-4.063,1.025
	c-3.067,0-6.034-1.643-7.586-4.535c-2.247-4.186-0.676-9.4,3.51-11.649l2.08-1.117C158.19,94.962,163.405,96.532,165.654,100.718z
	 M291.655,85.782c2.254,4.183,0.689,9.4-3.494,11.653l-2.076,1.118c-1.297,0.699-2.695,1.03-4.072,1.03
	c-3.063,0-6.027-1.639-7.581-4.524c-2.254-4.183-0.689-9.4,3.494-11.653l2.076-1.118C284.185,80.034,289.402,81.599,291.655,85.782z
	 M416.311,357.021c2.247,4.186,0.677,9.402-3.509,11.649l-2.076,1.115c-1.296,0.696-2.688,1.026-4.063,1.026
	c-3.067,0-6.034-1.643-7.586-4.534c-2.247-4.186-0.677-9.402,3.509-11.649l2.076-1.115
	C408.849,351.265,414.064,352.835,416.311,357.021z M367.457,133.6c-2.254-4.182-0.69-9.4,3.492-11.653l2.076-1.118
	c4.183-2.253,9.4-0.69,11.653,3.493c2.254,4.182,0.69,9.4-3.493,11.653l-2.076,1.118c-1.298,0.699-2.696,1.031-4.073,1.031
	C371.975,138.123,369.011,136.485,367.457,133.6z M259.467,177.36c2.249,4.185,0.679,9.4-3.507,11.649l-2.073,1.114
	c-1.296,0.696-2.689,1.026-4.064,1.026c-3.066,0-6.033-1.643-7.585-4.532c-2.249-4.185-0.679-9.4,3.507-11.649l2.073-1.114
	C252.001,171.604,257.217,173.174,259.467,177.36z"/>
</svg>