<svg width="281" height="171" viewBox="0 0 281 171" fill="none" xmlns="http://www.w3.org/2000/svg">
<g clip-path="url(#clip0_29222_880)">
<rect width="281" height="171" rx="10" fill="#009344"/>
<g opacity="0.2">
<path d="M263.792 114.166C263.792 111.014 261.236 108.458 258.083 108.458H166.75C163.597 108.458 161.042 111.014 161.042 114.166C161.042 117.319 163.597 119.875 166.75 119.875H258.083C261.236 119.875 263.792 117.319 263.792 114.166Z" fill="#7AC143"/>
<path d="M263.792 114.166C263.792 111.014 261.236 108.458 258.083 108.458H166.75C163.597 108.458 161.042 111.014 161.042 114.166C161.042 117.319 163.597 119.875 166.75 119.875H258.083C261.236 119.875 263.792 117.319 263.792 114.166Z" fill="white" fill-opacity="0.7"/>
</g>
<g opacity="0.2">
<path d="M189.067 17.125L180.195 19.2656L204.649 61.6212L176.816 69.0788L170.515 58.5104L153.136 55.8766C152.663 55.805 152.317 56.3121 152.557 56.7266L169 85.208C169.164 85.4914 169.349 85.7566 169.553 86.002C170.979 87.7197 173.31 88.4723 175.514 87.8421L182.543 85.8314L182.541 85.8242L266.009 63.459C270.718 62.1971 273.513 57.3562 272.251 52.6468C270.989 47.9372 266.149 45.1424 261.439 46.4042L228.773 55.1573L189.067 17.125Z" fill="#7AC143"/>
<path d="M189.067 17.125L180.195 19.2656L204.649 61.6212L176.816 69.0788L170.515 58.5104L153.136 55.8766C152.663 55.805 152.317 56.3121 152.557 56.7266L169 85.208C169.164 85.4914 169.349 85.7566 169.553 86.002C170.979 87.7197 173.31 88.4723 175.514 87.8421L182.543 85.8314L182.541 85.8242L266.009 63.459C270.718 62.1971 273.513 57.3562 272.251 52.6468C270.989 47.9372 266.149 45.1424 261.439 46.4042L228.773 55.1573L189.067 17.125Z" fill="white" fill-opacity="0.7"/>
</g>
<circle cx="233" cy="137" r="14" fill="#F7941D"/>
<circle cx="247" cy="137" r="14" fill="#0071DC"/>
<circle opacity="0.5" cx="233" cy="137" r="14" fill="#F7941D"/>
</g>
<defs>
<clipPath id="clip0_29222_880">
<rect width="281" height="171" rx="10" fill="white"/>
</clipPath>
</defs>
</svg>